<svg width="40" height="40" viewBox="0 0 40 40" fill="none" xmlns="http://www.w3.org/2000/svg">
<path d="M26.9222 13.0111C25.344 11.431 23.6464 9.97488 21.8444 8.65556C23.0768 7.91004 24.3704 7.2707 25.7111 6.74445C26.0667 6.61112 26.4 6.51112 26.7333 6.41112C27.0038 6.73834 27.3522 6.99235 27.7464 7.1498C28.1407 7.30725 28.5682 7.3631 28.9896 7.31221C29.4111 7.26133 29.813 7.10534 30.1585 6.85858C30.5039 6.61182 30.7818 6.2822 30.9667 5.90001C31.7601 5.97184 32.5087 6.29938 33.1 6.83334C34.4222 8.15556 34.4556 10.8222 33.2111 14.1444C33.7556 14.8667 34.2556 15.6 34.7111 16.3667C34.9 15.9222 35.1 15.4889 35.2556 15.0556C36.8889 10.7778 36.6778 7.27778 34.6667 5.30001C33.6605 4.3472 32.35 3.78052 30.9667 3.70001C30.7359 3.21885 30.3596 2.82244 29.8911 2.56685C29.4227 2.31126 28.8857 2.20944 28.3562 2.27578C27.8267 2.34213 27.3314 2.57328 26.9405 2.93654C26.5496 3.2998 26.2827 3.77678 26.1778 4.30001C25.7667 4.42223 25.3556 4.54445 24.9222 4.71112C23.1469 5.41027 21.4459 6.28498 19.8444 7.32223C18.2397 6.27162 16.5352 5.38212 14.7556 4.66667C10.4778 3.04445 6.97778 3.24445 5.01111 5.25556C3.16667 7.11112 2.86666 10.1889 4.08889 13.9889C3.80993 14.3476 3.63259 14.7747 3.57545 15.2255C3.51831 15.6763 3.58348 16.1342 3.76412 16.5512C3.94477 16.9681 4.23424 17.3288 4.6022 17.5955C4.97016 17.8621 5.40307 18.0249 5.85555 18.0667C6.21111 18.7444 6.6 19.4222 7.03333 20.0889C6.00148 21.6938 5.13413 23.3988 4.44444 25.1778C2.81111 29.4444 3.02222 32.9556 5.03333 34.9222C5.64521 35.4941 6.36568 35.9373 7.15204 36.2255C7.93839 36.5137 8.77461 36.641 9.61111 36.6C11.386 36.5421 13.136 36.1658 14.7778 35.4889C16.5556 34.7876 18.2602 33.913 19.8667 32.8778C21.4583 33.9368 23.1519 34.8338 24.9222 35.5556C26.2236 36.0677 27.5875 36.404 28.9778 36.5556C29.2218 37.0745 29.6333 37.4963 30.1461 37.7531C30.6588 38.0099 31.243 38.0867 31.8048 37.9713C32.3665 37.8559 32.8731 37.5549 33.243 37.1167C33.613 36.6785 33.8248 36.1287 33.8444 35.5556C34.1395 35.3732 34.415 35.161 34.6667 34.9222C36.6778 32.9111 36.8889 29.4444 35.2556 25.1778C33.3392 20.5949 30.503 16.454 26.9222 13.0111V13.0111ZM13.9667 33.4333C10.6333 34.7111 7.91111 34.6889 6.57778 33.3444C5.24444 32 5.21111 29.3222 6.5 25.9667C7.02224 24.6261 7.65788 23.3325 8.4 22.1C9.72329 23.8953 11.1792 25.5889 12.7556 27.1667C13.2333 27.6444 13.7222 28.1111 14.2111 28.5556C14.8778 28.2148 15.5556 27.8259 16.2444 27.3889C15.6 26.8111 14.9556 26.2778 14.3333 25.6C11.8326 23.1427 9.68603 20.3492 7.95555 17.3C8.30307 16.9398 8.53664 16.4851 8.62704 15.9929C8.71744 15.5006 8.66065 14.9926 8.46378 14.5325C8.26691 14.0723 7.9387 13.6804 7.52023 13.4059C7.10175 13.1313 6.6116 12.9863 6.11111 12.9889C5.27778 10.2111 5.42222 8.00001 6.58889 6.83334C6.99979 6.47121 7.47857 6.19436 7.99739 6.01888C8.51622 5.84339 9.06475 5.77277 9.61111 5.81112C11.1104 5.86119 12.589 6.17721 13.9778 6.74445C15.3185 7.2707 16.6121 7.91004 17.8444 8.65556C16.0425 9.97488 14.3449 11.431 12.7667 13.0111C12.2778 13.5 11.8 14.0111 11.3333 14.5222C11.6679 15.2262 12.0388 15.9123 12.4444 16.5778C13.0444 15.9 13.6556 15.2333 14.3111 14.5778C16.0206 12.8702 17.8799 11.3195 19.8667 9.94445C21.8322 11.3247 23.6727 12.8751 25.3667 14.5778C27.0746 16.2869 28.6253 18.1463 30 20.1333C28.6218 22.1177 27.0714 23.9768 25.3667 25.6889C22.1336 29.0196 18.2543 31.6549 13.9667 33.4333V33.4333ZM33.1 33.3333L32.9222 33.4778C32.6304 33.2304 32.2862 33.0527 31.9156 32.958C31.545 32.8633 31.1577 32.8542 30.7831 32.9313C30.4084 33.0083 30.0562 33.1696 29.753 33.4029C29.4499 33.6362 29.2038 33.9354 29.0333 34.2778C27.8912 34.1311 26.7716 33.8437 25.7 33.4222C24.3573 32.9004 23.0634 32.2608 21.8333 31.5111C23.6352 30.1918 25.3329 28.7356 26.9111 27.1556C28.4936 25.5836 29.95 23.8894 31.2667 22.0889C32.0121 23.3213 32.6514 24.6149 33.1778 25.9556C34.4444 29.3222 34.4444 32.0111 33.1 33.3333Z" fill="#9747FF"/>
<path d="M20.5794 23.6906C22.5783 23.3661 23.9357 21.4826 23.6112 19.4838C23.2868 17.4849 21.4033 16.1275 19.4045 16.452C17.4056 16.7764 16.0482 18.6599 16.3727 20.6588C16.6971 22.6576 18.5806 24.015 20.5794 23.6906Z" fill="#9747FF"/>
</svg>
